<?xml version="1.0" encoding="UTF-8" standalone="no"?>
<svg
   version="1.0"
   width="777.37915pt"
   height="297pt"
   viewBox="0 0 777.37915 297"
   preserveAspectRatio="xMidYMid meet"
   id="svg10"
   sodipodi:docname="a4a282131663ae322adcc9114a82e705.svg"
   xmlns:inkscape="http://www.inkscape.org/namespaces/inkscape"
   xmlns:sodipodi="http://sodipodi.sourceforge.net/DTD/sodipodi-0.dtd"
   xmlns="http://www.w3.org/2000/svg"
   xmlns:svg="http://www.w3.org/2000/svg">
  <defs
     id="defs14" />
  <sodipodi:namedview
     id="namedview12"
     pagecolor="#ffffff"
     bordercolor="#666666"
     borderopacity="1.0"
     inkscape:pageshadow="2"
     inkscape:pageopacity="0.0"
     inkscape:pagecheckerboard="0"
     inkscape:document-units="pt" />
  <metadata
     id="metadata2">
Created by potrace 1.16, written by Peter Selinger 2001-2019
</metadata>
  <g
     transform="matrix(0.1,0,0,-0.1,-13.12166,305)"
     fill="#000000"
     stroke="none"
     id="g8">
    <path
       d="M 315,3031 C 249,3001 201,2938 156,2821 135,2765 135,2763 132,1605 130,573 131,436 145,365 170,240 239,136 320,101 l 49,-21 h 3643 c 2413,0 3655,4 3679,10 56,16 124,82 158,153 58,125 56,72 56,1332 0,1098 -1,1163 -18,1220 -37,119 -92,197 -164,234 l -42,21 H 4018 c -3521,0 -3665,-1 -3703,-19 z m 5824,-384 c 6,-35 14,-91 17,-125 l 7,-62 H 3256 350 V 1560 660 h 3660 3660 v 905 905 h -560 -560 l -5,-22 c -4,-22 -177,-1341 -191,-1460 l -7,-58 h -141 -142 l -18,258 c -9,141 -30,428 -45,637 -16,209 -26,383 -24,388 4,6 202,11 203,5 5,-33 40,-488 40,-525 0,-29 3,-53 8,-53 4,0 38,204 76,453 44,292 76,471 90,507 37,95 -5,90 709,90 604,0 617,0 637,-20 20,-20 20,-33 20,-1108 0,-968 -2,-1090 -16,-1110 l -15,-22 H 4009 c -3706,0 -3719,0 -3739,20 -20,20 -20,33 -20,1122 0,1011 1,1103 17,1120 16,17 120,18 2939,18 H 6128 Z M 949,2195 c 52,-27 61,-70 61,-306 v -211 l -46,-139 c -25,-76 -52,-146 -60,-154 -11,-11 -38,-15 -97,-15 h -82 v -203 c 0,-111 -2,-210 -4,-219 -3,-16 -16,-18 -107,-18 H 510 v 635 634 l 158,4 c 86,1 179,4 205,5 27,1 60,-4 76,-13 z M 6880,1570 V 930 h -110 -110 v 640 640 h 110 110 z m -5299,578 c 35,-68 49,-136 49,-239 0,-96 -5,-120 -68,-345 l -29,-102 108,-266 108,-266 h -118 -118 l -82,212 c -104,268 -105,280 -57,484 20,84 36,154 36,158 0,3 -22,6 -50,6 h -50 V 1360 930 h -100 -100 v 630 630 h 225 225 z m 656,-155 -2,-198 -107,-3 c -99,-2 -108,-4 -108,-22 0,-18 9,-20 108,-22 l 107,-3 1,-157 1,-158 h -109 -108 v -80 -80 h 120 120 V 1100 930 h -220 -220 v 630 630 h 210 209 z m 600,30 c -3,-93 -8,-178 -12,-190 -7,-21 -14,-23 -70,-23 -77,0 -95,-6 -95,-33 0,-11 38,-112 86,-225 47,-113 92,-233 99,-266 31,-130 11,-271 -46,-332 -22,-24 -25,-24 -236,-24 h -214 l 5,33 c 3,17 10,91 16,162 16,193 2,174 127,177 91,3 108,6 111,20 2,9 -47,137 -109,284 l -112,268 -1,101 c 0,87 3,107 26,158 l 27,57 h 202 202 z m 575,-28 -3,-195 h -54 -55 V 1365 930 h -105 -105 v 435 435 h -86 -87 l 6,33 c 3,17 15,105 28,195 l 22,162 h 221 221 z m 578,-435 V 930 h -265 -265 v 128 c 0,123 3,141 75,463 42,184 92,409 113,502 l 37,167 h 152 153 z m 578,468 c -3,-90 -10,-175 -16,-190 -11,-25 -15,-27 -83,-30 -53,-2 -75,-7 -82,-19 -8,-12 11,-65 78,-220 48,-112 96,-235 106,-273 35,-128 19,-269 -37,-336 l -26,-30 h -210 -211 l 6,68 c 4,37 7,120 7,185 v 117 h 114 c 88,0 115,3 119,14 3,8 -47,135 -110,283 -108,248 -117,274 -121,344 -5,87 10,168 39,216 l 21,33 h 205 206 z m 592,-38 v -200 h -110 c -103,0 -110,-1 -110,-20 0,-19 7,-20 110,-20 h 110 v -160 -159 l -107,-3 -108,-3 -3,-77 -3,-78 h 121 120 V 1100 930 h -215 -215 v 630 630 h 205 205 z m 610,153 c 12,-26 29,-79 37,-117 23,-111 13,-205 -41,-396 -26,-90 -45,-171 -43,-180 3,-8 50,-126 106,-262 56,-136 101,-250 101,-253 0,-3 -52,-4 -116,-3 l -116,3 -79,200 c -102,255 -106,289 -60,487 17,75 34,143 37,152 5,14 -3,16 -50,16 h -56 V 1360 930 h -95 -95 v 630 630 h 224 224 z m 1717,-105 c -3,-84 -11,-170 -17,-190 l -11,-38 h -64 c -77,0 -95,-6 -95,-31 0,-11 43,-120 95,-242 124,-293 141,-396 83,-529 -33,-78 -34,-78 -265,-78 h -203 v 93 c 0,52 3,135 6,185 l 7,91 111,3 c 92,3 111,6 114,19 2,9 -49,137 -112,285 l -116,269 v 95 c 1,95 13,147 44,195 l 16,25 h 207 206 z"
       id="path4" />
    <path
       d="m 727,1803 c -9,-8 -9,-142 0,-224 l 6,-64 38,135 c 21,74 39,141 39,148 0,13 -71,18 -83,5 z"
       id="path6" />
  </g>
</svg>
